HIERARCHY
ROOT SimulationBone
{
	OFFSET 0.000000 0.000000 0.000000
	CHANNELS 6 Xposition Yposition Zposition Zrotation Yrotation Xrotation 
	JOINT Hips
	{
		OFFSET 0.000000 0.000000 0.000000
		CHANNELS 6 Xposition Yposition Zposition Zrotation Yrotation Xrotation 
		JOINT LeftUpLeg
		{
			OFFSET 0.103461 1.857828 10.548504
			CHANNELS 3 Zrotation Yrotation Xrotation
			JOINT LeftLeg
			{
				OFFSET 43.500008 -0.000031 0.000006
				CHANNELS 3 Zrotation Yrotation Xrotation
				JOINT LeftFoot
				{
					OFFSET 42.372200 0.000019 -0.000010
					CHANNELS 3 Zrotation Yrotation Xrotation
					JOINT LeftToe
					{
						OFFSET 17.299999 -0.000000 0.000002
						CHANNELS 3 Zrotation Yrotation Xrotation
						End Site
						{
							OFFSET 0.000000 0.000000 0.000000
						}
					}
				}
			}
		}
		JOINT RightUpLeg
		{
			OFFSET 0.103457 1.857829 -10.548504
			CHANNELS 3 Zrotation Yrotation Xrotation
			JOINT RightLeg
			{
				OFFSET 43.500046 -0.000019 0.000011
				CHANNELS 3 Zrotation Yrotation Xrotation
				JOINT RightFoot
				{
					OFFSET 42.372261 0.000000 0.000008
					CHANNELS 3 Zrotation Yrotation Xrotation
					JOINT RightToe
					{
						OFFSET 17.299990 -0.000006 0.000008
						CHANNELS 3 Zrotation Yrotation Xrotation
						End Site
						{
							OFFSET 0.000000 0.000000 0.000000
						}
					}
				}
			}
		}
		JOINT Spine
		{
			OFFSET 6.901969 -2.603727 -0.000006
			CHANNELS 3 Zrotation Yrotation Xrotation
			JOINT Spine1
			{
				OFFSET 12.588100 -0.000002 0.000002
				CHANNELS 3 Zrotation Yrotation Xrotation
				JOINT Spine2
				{
					OFFSET 12.343195 0.000004 0.000008
					CHANNELS 3 Zrotation Yrotation Xrotation
					JOINT Neck
					{
						OFFSET 25.832905 -0.000008 -0.000002
						CHANNELS 3 Zrotation Yrotation Xrotation
						JOINT Head
						{
							OFFSET 11.766608 0.000010 -0.000008
							CHANNELS 3 Zrotation Yrotation Xrotation
							End Site
							{
								OFFSET 0.000000 0.000000 0.000000
							}
						}
					}
					JOINT LeftShoulder
					{
						OFFSET 19.745903 -1.480370 6.000106
						CHANNELS 3 Zrotation Yrotation Xrotation
						JOINT LeftArm
						{
							OFFSET 11.284119 -0.000006 -0.000014
							CHANNELS 3 Zrotation Yrotation Xrotation
							JOINT LeftForeArm
							{
								OFFSET 33.000050 0.000004 0.000026
								CHANNELS 3 Zrotation Yrotation Xrotation
								JOINT LeftHand
								{
									OFFSET 25.200020 0.000017 0.000004
									CHANNELS 3 Zrotation Yrotation Xrotation
									End Site
									{
										OFFSET 0.000000 0.000000 0.000000
									}
								}
							}
						}
					}
					JOINT RightShoulder
					{
						OFFSET 19.746099 -1.480375 -6.000082
						CHANNELS 3 Zrotation Yrotation Xrotation
						JOINT RightArm
						{
							OFFSET 11.284140 -0.000015 -0.000008
							CHANNELS 3 Zrotation Yrotation Xrotation
							JOINT RightForeArm
							{
								OFFSET 33.000084 0.000016 0.000002
								CHANNELS 3 Zrotation Yrotation Xrotation
								JOINT RightHand
								{
									OFFSET 25.199783 0.000142 0.000437
									CHANNELS 3 Zrotation Yrotation Xrotation
									End Site
									{
										OFFSET 0.000000 0.000000 0.000000
									}
								}
							}
						}
					}
				}
			}
		}
	}
}
MOTION
Frames: 15
Frame Time: 0.016667
102.906525 0.000000 -286.753165 0.000000 89.895674 0.000000 -3.301562 89.714951 -0.819836 91.330516 -2.792077 -177.746078 -166.925753 -1.453513 179.455857 -21.870056 -3.198046 0.694739 84.630585 -0.673016 -1.315328 21.454545 0.003099 -0.000001 156.092062 4.477803 -174.757439 -24.685028 -0.189323 0.220724 72.504192 0.008081 0.587415 21.454557 -0.003123 -0.000018 10.387364 -0.364972 -1.087354 10.768107 -0.627174 -2.203966 10.450257 -0.640325 -2.200140 -7.906770 10.446588 5.273242 -44.597798 -9.622830 14.777864 169.491813 -81.069209 9.100284 -27.831227 46.545556 12.143082 -48.478680 -21.201346 2.115284 -1.537822 -16.145944 4.718948 168.116937 72.249703 -10.841313 -21.793765 -52.131107 -22.237825 -44.112615 21.584264 -2.033312 9.868604 3.872996 -86.037904 
103.344194 0.000000 -288.712598 180.000000 89.626304 180.000000 -3.233278 89.639970 -1.038552 91.652308 -2.395654 -179.076881 -166.376379 -1.847707 179.089904 -23.613762 -3.384096 0.370860 83.189501 -0.474291 -1.394284 21.454550 0.003084 0.000001 156.363895 3.957599 -174.546662 -27.128221 -0.055461 -0.313502 74.494937 0.204000 0.017025 21.454557 -0.003121 -0.000021 10.370655 -0.192204 -0.977218 10.731014 -0.292980 -1.967996 10.413125 -0.304695 -1.966190 -8.234572 10.622921 5.633957 -44.437428 -9.913711 15.403733 172.295299 -80.686528 6.271084 -27.006648 47.953362 13.571060 -46.041553 -21.270319 2.036211 -1.359381 -15.498397 4.841977 167.428000 72.214344 -11.549809 -22.267149 -51.487299 -22.773486 -42.458598 21.416814 -1.980671 9.888713 3.631674 -85.884647 
103.749255 0.000000 -290.618407 180.000000 89.210541 180.000000 -3.152481 89.734138 -1.170201 91.693596 -2.090765 -179.863956 -166.602589 -2.263001 178.592631 -25.901162 -3.315215 0.391750 80.737643 -0.460365 -1.144005 21.454553 0.003081 0.000002 157.002731 3.629104 -174.208606 -28.477867 0.167037 -0.653341 76.069544 0.293158 -0.497002 21.454558 -0.003120 -0.000021 10.268449 -0.065079 -0.952763 10.524395 -0.043247 -1.907439 10.206490 -0.054617 -1.907138 -8.313338 11.261654 5.903770 -44.268644 -10.510907 16.237762 173.396946 -80.539337 5.158043 -25.740783 49.606328 15.277893 -43.336153 -21.083578 1.948881 -0.690436 -15.469993 4.467195 166.949958 72.179290 -12.041685 -22.661745 -51.172128 -22.811180 -40.758600 20.947944 -1.894430 10.049006 3.485711 -85.406003 
104.122476 0.000000 -292.474902 180.000000 88.853818 180.000000 -3.072709 89.944809 -1.234485 91.586102 -1.853753 179.749889 -167.453250 -2.714477 178.064818 -28.766111 -3.022758 0.633583 77.777891 -0.668592 -1.145866 21.454553 0.003085 0.000002 157.949318 3.394241 -173.789114 -29.010541 0.408019 -0.838413 77.315708 0.301011 -0.947600 21.454558 -0.003118 -0.000020 10.121878 0.033788 -0.977402 10.229602 0.153844 -1.947952 9.911696 0.142200 -1.948836 -8.288604 12.073806 6.072004 -43.959809 -11.190051 17.029615 173.603274 -80.584080 4.947343 -24.271397 51.337127 17.171695 -40.519260 -20.557693 1.838703 0.310410 -15.849884 3.562192 166.746453 72.185368 -12.250191 -22.963399 -51.113993 -22.583492 -39.124337 20.399768 -1.810806 10.370105 3.295658 -84.832727 
104.464628 0.000000 -294.286388 180.000000 88.553531 180.000000 -3.006550 90.219337 -1.251423 91.457505 -1.653051 179.623726 -168.778701 -3.214089 177.606201 -32.243642 -2.541592 0.969346 74.818349 -1.195298 -1.971981 21.454553 0.003090 0.000003 159.144132 3.155587 -173.334464 -29.002109 0.586652 -0.906822 78.320235 0.255036 -1.324609 21.454558 -0.003113 -0.000018 9.972301 0.121800 -1.014383 9.928903 0.330165 -2.014553 9.611000 0.318104 -2.016498 -8.309694 12.771914 6.125451 -43.367657 -11.727578 17.525512 173.567878 -80.763490 4.978080 -22.885863 52.992557 19.108797 -37.751103 -19.607486 1.699712 1.492140 -16.421125 2.091627 166.881970 72.272625 -12.107734 -23.163693 -51.243842 -22.319744 -37.661133 19.996227 -1.749843 10.871714 2.922905 -84.397300 
104.776482 0.000000 -296.057175 180.000000 88.306961 180.000000 -2.953596 90.517059 -1.240109 91.411612 -1.473126 179.622129 -170.430333 -3.738203 177.288500 -36.308152 -1.921460 1.261351 72.229809 -2.094330 -3.911590 21.454551 0.003091 0.000005 160.541852 2.852451 -172.924000 -28.680510 0.662382 -0.888082 79.155345 0.175379 -1.617588 21.454557 -0.003104 -0.000016 9.852805 0.208893 -1.031786 9.688385 0.503363 -2.042454 9.370479 0.491145 -2.045444 -8.470851 13.159500 6.059966 -42.429464 -11.980576 17.575320 173.791476 -81.007925 4.744554 -21.817929 54.457935 20.969506 -35.187982 -18.246361 1.542707 2.714074 -16.830051 0.185835 167.379028 72.438066 -11.591558 -23.233685 -51.461520 -22.215746 -36.454890 19.880979 -1.714247 11.550062 2.317226 -84.278678 
105.058807 0.000000 -297.791570 180.000000 88.111318 180.000000 -2.863894 90.845238 -1.214949 91.465160 -1.372649 179.628188 -172.257221 -4.145101 177.070455 -40.680794 -1.254042 1.340422 69.756550 -3.040332 -6.143656 21.454550 0.003088 0.000008 162.159004 2.568684 -172.758324 -28.082322 0.774412 -0.768978 79.838019 0.047274 -1.822022 21.454557 -0.003100 -0.000015 9.762979 0.274438 -1.017200 9.507733 0.631407 -2.008420 9.189816 0.619412 -2.012185 -8.638785 13.402512 5.921584 -41.435837 -12.144753 17.442133 174.193414 -81.206851 4.331728 -20.861519 55.706273 22.962096 -32.958377 -16.888713 1.411563 3.856175 -16.192063 -1.364861 168.052979 72.512692 -10.897525 -23.067541 -51.536754 -22.325900 -35.533945 19.872780 -1.689156 12.305603 1.769398 -84.426506 
105.312374 0.000000 -299.493882 180.000000 87.963754 180.000000 -2.696691 91.213877 -1.188392 91.609563 -1.405794 179.559718 -174.127203 -4.312129 176.890350 -45.048760 -0.656333 1.112969 67.113323 -3.652265 -7.748893 21.454551 0.003083 0.000009 163.995510 2.409407 -172.970609 -27.234419 1.048616 -0.546431 80.369558 -0.135140 -1.938167 21.454557 -0.003106 -0.000016 9.696160 0.298161 -0.967686 9.374032 0.673620 -1.908058 9.056102 0.662233 -1.912080 -8.683239 13.686642 5.763581 -40.664162 -12.435186 17.403022 174.566062 -81.271650 3.952286 -19.718393 56.730902 25.295918 -31.155623 -15.931200 1.316171 4.732906 -13.859953 -1.739992 168.665968 72.359844 -10.274211 -22.610653 -51.284862 -22.624490 -34.894839 19.755141 -1.665648 13.016691 1.551853 -84.711398 
105.537953 0.000000 -301.168417 180.000000 87.861381 180.000000 -2.498028 91.596001 -1.172187 91.821658 -1.533438 179.456439 -175.988512 -4.301702 176.756198 -49.189389 -0.217399 0.765090 64.716595 -3.882204 -8.461238 21.454551 0.003082 0.000005 165.911210 2.375898 -173.321542 -26.319366 1.383234 -0.313290 80.743524 -0.308117 -1.977779 21.454558 -0.003116 -0.000018 9.654229 0.291889 -0.898836 9.290704 0.654908 -1.771355 8.972755 0.644341 -1.775265 -8.714795 13.911365 5.614544 -39.978753 -12.770074 17.395758 174.918029 -81.240469 3.596370 -18.306094 57.580829 27.708605 -29.814270 -15.287377 1.244539 5.039974 -10.547629 -0.820317 169.098011 72.130489 -9.838985 -22.073536 -50.839563 -22.923471 -34.450196 19.497081 -1.639346 13.577303 1.527405 -84.952389 
105.736315 0.000000 -302.819485 180.000000 87.801274 180.000000 -2.323845 91.957749 -1.173079 92.071984 -1.690720 179.372143 -177.821941 -4.219971 176.674698 -52.935863 0.031989 0.547039 63.141111 -3.790085 -8.269037 21.454546 0.003091 -0.000003 167.756314 2.413715 -173.536563 -25.518108 1.645477 -0.170118 80.963449 -0.405440 -1.958215 21.454560 -0.003122 -0.000019 9.637922 0.274194 -0.825569 9.258784 0.613468 -1.626554 8.940805 0.603776 -1.630214 -8.853261 13.944958 5.495584 -39.194217 -13.024094 17.310726 175.398620 -81.170486 3.111143 -16.640465 58.305564 29.930971 -28.949311 -14.798763 1.195891 4.629736 -7.092993 1.239210 169.307326 72.002700 -9.628673 -21.663246 -50.379500 -23.101222 -34.105673 19.139139 -1.608374 13.908004 1.507518 -84.980257 
105.908229 0.000000 -304.451392 180.000000 87.780479 180.000000 -2.182985 92.274689 -1.176354 92.322298 -1.801364 179.294858 -179.659547 -4.172701 176.556401 -56.283329 0.157114 0.660323 62.811771 -3.600007 -7.529425 21.454543 0.003101 -0.000010 169.487770 2.415408 -173.568849 -24.841921 1.790646 -0.132087 81.080888 -0.422490 -1.911453 21.454562 -0.003122 -0.000019 9.634840 0.258742 -0.741367 9.253292 0.575842 -1.459658 8.935282 0.567161 -1.463095 -9.017022 13.820073 5.425474 -38.342062 -13.210624 17.181749 176.442310 -81.068041 2.055748 -14.872753 58.871803 32.172820 -28.530456 -14.501572 1.170126 3.907535 -3.600063 4.160945 169.339978 71.975416 -9.596183 -21.355951 -49.931988 -23.415298 -33.824725 18.822774 -1.581615 14.014405 1.520201 -84.703306 
106.054465 0.000000 -306.068447 180.000000 87.796022 180.000000 -2.071701 92.531840 -1.167678 92.536837 -1.813085 179.203727 178.461981 -4.237914 176.327926 -59.233836 0.232263 1.209564 63.876407 -3.577146 -6.673315 21.454547 0.003105 -0.000009 171.092426 2.304577 -173.452494 -24.262537 1.819506 -0.185721 81.151588 -0.374474 -1.868990 21.454562 -0.003119 -0.000018 9.630910 0.254124 -0.637961 9.246032 0.558347 -1.253571 8.927997 0.550908 -1.256914 -9.094299 13.606192 5.415149 -37.501229 -13.373928 17.067303 178.344151 -80.919259 0.130605 -13.148511 59.234624 34.675413 -28.507157 -14.435489 1.165702 3.288166 -0.125932 7.612177 169.264644 72.005395 -9.672473 -21.089147 -49.487595 -24.110351 -33.598684 18.671983 -1.566942 13.946737 1.608179 -84.077863 
106.175795 0.000000 -307.674958 180.000000 87.844908 180.000000 -1.982795 92.742599 -1.156273 92.698669 -1.781506 179.105694 176.539613 -4.360389 176.058631 -61.657025 0.231704 1.996887 65.542003 -3.819063 -6.107313 21.454555 0.003101 -0.000005 172.571642 2.172109 -173.297445 -23.765452 1.830781 -0.290820 81.199576 -0.294830 -1.843879 21.454562 -0.003115 -0.000017 9.618441 0.253435 -0.521533 9.221698 0.547593 -1.021222 8.903640 0.541551 -1.024510 -9.051776 13.353862 5.447620 -36.722047 -13.536421 16.982362 -179.348077 -80.701629 -2.206307 -11.435696 59.398014 37.356260 -28.792726 -14.460689 1.172312 2.724218 2.814154 10.935440 169.182979 72.061593 -9.754212 -20.840265 -49.050483 -25.032181 -33.474848 18.639730 -1.561969 13.845709 1.646891 -83.177182 
106.272989 0.000000 -309.275233 180.000000 87.924130 180.000000 -1.909139 92.922404 -1.151312 92.803409 -1.769088 179.020822 174.584973 -4.454908 175.821142 -63.419589 0.112547 2.775803 66.987561 -4.269436 -6.045282 21.454559 0.003093 -0.000003 173.934289 2.118601 -173.198231 -23.348916 1.913720 -0.403952 81.239476 -0.215340 -1.836093 21.454559 -0.003114 -0.000017 9.594086 0.248865 -0.401655 9.173620 0.528747 -0.782340 8.855536 0.524143 -0.785513 -8.890906 13.107125 5.503286 -36.025693 -13.714151 16.932354 -177.161508 -80.420073 -4.421129 -9.694810 59.399074 40.047189 -29.289758 -14.433041 1.179839 2.041225 4.791846 13.533149 169.181574 72.122518 -9.753291 -20.600921 -48.629030 -25.940082 -33.506445 18.646524 -1.563017 13.833598 1.509839 -82.166752 
106.346816 0.000000 -310.873579 180.000000 88.030669 180.000000 -1.847239 93.066467 -1.138369 92.877313 -1.757619 178.995969 172.636624 -4.471000 175.575723 -64.502209 -0.037741 3.389722 68.200339 -4.591861 -5.931154 21.454558 0.003087 -0.000003 175.200759 2.097306 -173.135337 -23.047705 2.024212 -0.502214 81.280316 -0.142850 -1.811640 21.454558 -0.003111 -0.000018 9.565617 0.244423 -0.286996 9.117248 0.510629 -0.553866 8.799145 0.507404 -0.556926 -8.674064 12.903825 5.580907 -35.345473 -13.919930 16.928137 -175.204774 -80.162003 -6.404904 -8.024414 59.360673 42.566502 -29.893913 -14.370882 1.187251 1.444966 6.151973 15.446027 169.248057 72.191995 -9.682479 -20.397959 -48.231400 -26.632059 -33.713055 18.654234 -1.568257 13.885602 1.242791 -81.466623 
